<?xml version="1.0" standalone="no"?>
<!DOCTYPE svg PUBLIC "-//W3C//DTD SVG 20010904//EN"
 "http://www.w3.org/TR/2001/REC-SVG-20010904/DTD/svg10.dtd">
<svg version="1.0" xmlns="http://www.w3.org/2000/svg"
 width="200.000000pt" height="200.000000pt" viewBox="0 0 200.000000 200.000000"
 preserveAspectRatio="xMidYMid meet">

<g transform="translate(0.000000,200.000000) scale(0.100000,-0.100000)"
fill="#000000" stroke="none">
<path d="M872 1908 c-7 -7 -12 -29 -12 -50 0 -38 0 -38 40 -38 33 0 40 -3 40
-20 0 -14 -14 -25 -49 -40 -27 -12 -60 -33 -74 -48 -46 -48 -730 -1250 -752
-1321 -4 -13 -7 -48 -6 -78 0 -65 38 -142 88 -180 69 -53 76 -53 770 -53 l645
0 -7 43 c-3 23 -8 54 -11 70 l-6 27 -638 0 -638 0 -31 26 c-18 15 -33 39 -37
60 -6 31 8 60 136 292 330 597 574 1015 605 1034 35 22 87 18 117 -8 10 -10
98 -154 195 -321 97 -167 178 -302 179 -300 4 3 -43 316 -52 345 -4 14 -2 22
6 22 7 0 10 8 7 19 -3 13 3 22 19 30 29 13 29 16 1 65 -32 56 -50 65 -88 43
-17 -9 -34 -15 -39 -12 -5 3 -27 39 -49 80 -54 97 -91 139 -146 162 -34 14
-45 23 -45 41 0 13 6 22 15 22 11 0 15 12 15 50 l0 50 -93 0 c-59 0 -97 -4
-105 -12z"/>
<path d="M932 1533 c-12 -10 -102 -160 -201 -335 -197 -344 -204 -363 -155
-409 25 -23 29 -24 162 -21 75 2 246 1 378 -3 l242 -7 48 -85 49 -84 3 127 c2
91 -1 130 -10 142 -29 35 -73 42 -257 42 l-180 0 -3 147 c-3 131 -5 148 -20
151 -17 3 -18 -9 -18 -147 l0 -151 -126 0 c-69 0 -124 4 -122 8 17 45 264 460
269 455 4 -5 33 -53 65 -108 71 -126 80 -135 120 -135 35 0 64 28 64 63 0 27
-177 334 -203 352 -29 20 -80 19 -105 -2z m78 -37 c16 -21 9 -60 -13 -64 -40
-8 -64 47 -29 67 23 14 28 13 42 -3z m-179 -292 c17 -21 0 -49 -31 -49 -31 0
-48 28 -31 49 8 9 21 16 31 16 10 0 23 -7 31 -16z m374 -19 c0 -24 -5 -31 -24
-33 -32 -5 -54 23 -40 50 7 13 19 18 37 16 23 -2 27 -8 27 -33z m-554 -321
c17 -21 0 -49 -31 -49 -31 0 -48 28 -31 49 8 9 21 16 31 16 10 0 23 -7 31 -16z
m368 -13 c13 -24 -8 -55 -34 -50 -28 6 -42 34 -26 53 18 22 48 20 60 -3z m395
-7 c10 -27 7 -43 -13 -54 -11 -5 -26 -7 -35 -4 -21 8 -30 42 -16 59 16 20 56
19 64 -1z"/>
<path d="M434 640 c-24 -10 -164 -239 -164 -270 0 -36 28 -77 60 -88 21 -8
203 -9 580 -5 l550 6 0 64 0 63 -510 0 -510 0 45 74 c52 85 56 116 19 145 -29
23 -38 24 -70 11z m50 -36 c9 -8 16 -19 16 -24 0 -5 -7 -16 -16 -24 -8 -9 -19
-16 -24 -16 -13 0 -40 30 -40 44 0 6 5 17 12 24 16 16 33 15 52 -4z m-106
-216 c30 -30 -11 -85 -44 -57 -25 21 -11 69 21 69 6 0 16 -5 23 -12z m290 -20
c17 -17 15 -43 -4 -59 -31 -26 -70 25 -44 56 15 18 32 19 48 3z m360 0 c18
-18 14 -46 -7 -58 -38 -20 -71 13 -51 51 12 21 40 25 58 7z m362 -7 c13 -25 4
-48 -21 -56 -26 -8 -49 11 -49 40 0 37 52 48 70 16z"/>
<path d="M1574 594 c8 -29 -25 -58 -56 -49 -22 6 -22 6 -4 -9 23 -19 31 -19
57 -6 21 12 25 46 8 70 -8 12 -9 11 -5 -6z"/>
<path d="M1678 353 c-3 -13 -17 -27 -30 -32 -23 -10 -23 -10 5 -10 29 -1 41
15 35 46 -3 15 -5 15 -10 -4z"/>
</g>
</svg>
